<svg xmlns="http://www.w3.org/2000/svg" viewBox="0 0 64 64"><title>PIPELINE</title><defs><linearGradient id="s" x1="0" y1="0" x2="0" y2="1"><stop offset="0" stop-color="#4FC3FF"/><stop offset="1" stop-color="#FFE6F3"/></linearGradient><linearGradient id="c" x1="0" y1="0" x2="0" y2="1"><stop offset="0" stop-color="#FFFFFF"/><stop offset=".48" stop-color="#8EEBFF"/><stop offset=".5" stop-color="#4A3D7A"/><stop offset=".53" stop-color="#FF7A3D"/><stop offset="1" stop-color="#FFE27A"/></linearGradient></defs><rect width="64" height="64" rx="14" fill="url(#s)"/><path d="M45 6c4 6-2 8 2 13 2-3 4-4 4-8 4 4 4 11-1 15-3 3-9 3-12-1-3-5 3-9 7-19z" fill="#FF8A3D" stroke="#2A1E4F" stroke-width="2.5" stroke-linejoin="round"/><path d="M14 54l6-40h17c10 0 15 5 14 12-1 9-8 13-17 13h-6l-2 15z" fill="#FF3EA5" transform="translate(2 2)" opacity=".9"/><path d="M14 54l6-40h17c10 0 15 5 14 12-1 9-8 13-17 13h-6l-2 15z" fill="url(#c)" stroke="#2A1E4F" stroke-width="3" stroke-linejoin="round"/><path d="M27 23l-1.4 8h5c4 0 6-1.6 6.4-4.2.3-2.4-1.4-3.8-4.8-3.8z" fill="#FFFFFF" stroke="#2A1E4F" stroke-width="2.5" stroke-linejoin="round"/></svg>
